<svg xmlns="http://www.w3.org/2000/svg" viewBox="0 0 500.49 165.31"><defs><style>.cls-1{fill:#575756;}.cls-2{fill:#1d71b8;}</style></defs><g id="Слой_2" data-name="Слой 2"><g id="Слой_1-2" data-name="Слой 1"><path class="cls-1" d="M261.73,123.56C262,97.39,221.09,85.15,220,65.21c4.78-11.77,30.08-8,41.71-1.58h0C260.24,48.13,260,45,259.44,32.79l-.19-.06c0-.3,0-.59,0-.89-19.78-3.8-40.88-7.43-59.88,2.39-16.85,9.16-22.5,32.15-12.5,48.15,8.72,14.1,25.83,24.88,35.3,36.93h0c8.64,19.6-15.43,17.93-32.9,17.08-5.75-.27-12.12-10.91-14.59-16-10.17-20.71-36.54-76.15-40.77-82.16h0c-17.28.25-24.21.22-40.73,0-1.46,32.64-4.52,90-5.66,123.06h0c15.51-.21,16.2-.24,30.61,0a.78.78,0,0,0,.8-.76c.27-18.66,1.53-54.87,2.44-74.94a.74.74,0,0,1,1.41-.27c10.08,21.78,21.93,42.3,33,63.94,3.75,7.35,8.56,13.91,25.37,14.44C213,164.46,263.52,171,261.73,123.56Z"/><path class="cls-2" d="M2.61,159.07Q1.49,138.69,0,126.43c12,7.72,56.65,17.24,45.32-7.61-9.2-11.43-27.93-24.77-35.16-36.61-10-16-4.35-39,12.5-48.14,18.9-9.71,38.67-6.25,59.89-2.4.52,12.67.8,15.67,2.26,31.4a66.79,66.79,0,0,0-26.06-6.32C47.87,55.9,37.51,65,46.29,74.41c8.75,10.5,24.62,20,32.77,32.5,11.12,14.73,6.24,37.13-8.28,47.62C49.24,168.43,29.32,163.73,2.61,159.07Z"/><path class="cls-2" d="M175.27,109.87l.19-8.34,3.68-74.66L181.1,0q-13.23.18-16,.18-6,0-16.08-.18,0,10.47-1,37.8c-.2,5.48-.39,10.55-.58,15.3Z"/><path class="cls-2" d="M279.12,63.08a9.25,9.25,0,0,1-2-6.4v-2h5.09v2.35q0,3.34,2.79,3.34a2.64,2.64,0,0,0,2.09-.81,4,4,0,0,0,.71-2.62,7.29,7.29,0,0,0-1-3.8,18.15,18.15,0,0,0-3.63-4,21.72,21.72,0,0,1-4.65-5.31,10.91,10.91,0,0,1-1.33-5.37,8.93,8.93,0,0,1,2.06-6.29,7.73,7.73,0,0,1,6-2.23,7.44,7.44,0,0,1,5.86,2.23q2,2.22,2,6.39v1.42H288V38.31a3.94,3.94,0,0,0-.68-2.58,2.52,2.52,0,0,0-2-.8c-1.8,0-2.7,1.09-2.7,3.28a6.49,6.49,0,0,0,1,3.48,19.39,19.39,0,0,0,3.65,3.92A20.23,20.23,0,0,1,291.9,51a11.84,11.84,0,0,1,1.28,5.63,9.23,9.23,0,0,1-2.08,6.47A7.83,7.83,0,0,1,285,65.31,7.57,7.57,0,0,1,279.12,63.08Z"/><path class="cls-2" d="M300.87,35.42h-5.63v-4.9H311.9v4.9h-5.64v29.4h-5.39Z"/><path class="cls-2" d="M316.8,30.52h7.3l5.58,34.3h-5.39l-1-6.81v.09h-6.12l-1,6.72h-5Zm5.88,22.93-2.4-17h-.1l-2.35,17Z"/><path class="cls-2" d="M332.67,30.52h6.76l5.25,20.53h.09V30.52h4.81v34.3H344l-6.47-25h-.1v25h-4.8Z"/><path class="cls-2" d="M354,30.52h8.23c2.68,0,4.69.71,6,2.15s2,3.55,2,6.32V56.34c0,2.78-.67,4.88-2,6.32s-3.34,2.16-6,2.16H354Zm8.13,29.4a2.61,2.61,0,0,0,2-.79,3.7,3.7,0,0,0,.71-2.55V38.75a3.7,3.7,0,0,0-.71-2.55,2.6,2.6,0,0,0-2-.78h-2.74v24.5Z"/><path class="cls-2" d="M378.34,30.52h7.3l5.59,34.3h-5.39l-1-6.81v.09h-6.13l-1,6.72h-5Zm5.88,22.93-2.4-17h-.1l-2.35,17Z"/><path class="cls-2" d="M394.21,30.52h8c2.78,0,4.8.64,6.08,1.93s1.91,3.28,1.91,5.95v2.11c0,3.56-1.18,5.82-3.53,6.76v.1a4.19,4.19,0,0,1,2.77,2.4,12.09,12.09,0,0,1,.81,4.85v6c0,1,0,1.77.09,2.38a5.93,5.93,0,0,0,.5,1.79h-5.49a7.34,7.34,0,0,1-.39-1.57,22.36,22.36,0,0,1-.1-2.65V54.33a5.35,5.35,0,0,0-.76-3.28,3.22,3.22,0,0,0-2.62-.93H399.6v14.7h-5.39Zm7.35,14.7a3.23,3.23,0,0,0,2.43-.84,3.91,3.91,0,0,0,.81-2.79V38.94a4.36,4.36,0,0,0-.66-2.69,2.49,2.49,0,0,0-2.09-.83H399.6v9.8Z"/><path class="cls-2" d="M414.35,30.52h8.23c2.68,0,4.69.71,6,2.15s2,3.55,2,6.32V56.34c0,2.78-.67,4.88-2,6.32s-3.35,2.16-6,2.16h-8.23Zm8.14,29.4a2.61,2.61,0,0,0,2-.79,3.75,3.75,0,0,0,.71-2.55V38.75a3.75,3.75,0,0,0-.71-2.55,2.6,2.6,0,0,0-2-.78h-2.75v24.5Z"/><path class="cls-2" d="M447,30.52h7.31l5.58,34.3h-5.39l-1-6.81v.09h-6.12l-1,6.72h-5Zm5.88,22.93-2.4-17h-.09l-2.36,17Z"/><path class="cls-2" d="M462.91,30.52h6.76l5.25,20.53H475V30.52h4.81v34.3h-5.54l-6.47-25h-.1v25h-4.8Z"/><path class="cls-2" d="M484.22,30.52h8.24c2.67,0,4.68.71,6,2.15s2,3.55,2,6.32V56.34c0,2.78-.67,4.88-2,6.32s-3.35,2.16-6,2.16h-8.24Zm8.14,29.4a2.61,2.61,0,0,0,2-.79,3.7,3.7,0,0,0,.71-2.55V38.75a3.7,3.7,0,0,0-.71-2.55,2.6,2.6,0,0,0-2-.78h-2.74v24.5Z"/><path class="cls-2" d="M279.12,113.08a9.25,9.25,0,0,1-2-6.4v-2h5.09v2.35q0,3.34,2.79,3.34a2.64,2.64,0,0,0,2.09-.81,4,4,0,0,0,.71-2.62,7.29,7.29,0,0,0-1-3.8,18.15,18.15,0,0,0-3.63-4,21.72,21.72,0,0,1-4.65-5.31,10.91,10.91,0,0,1-1.33-5.37,8.93,8.93,0,0,1,2.06-6.29,7.73,7.73,0,0,1,6-2.23,7.44,7.44,0,0,1,5.86,2.23q2,2.22,2,6.39v1.42H288V88.31a3.94,3.94,0,0,0-.68-2.58,2.52,2.52,0,0,0-2-.8c-1.8,0-2.7,1.09-2.7,3.28a6.49,6.49,0,0,0,1,3.48,19.39,19.39,0,0,0,3.65,3.92A20.23,20.23,0,0,1,291.9,101a11.84,11.84,0,0,1,1.28,5.63,9.23,9.23,0,0,1-2.08,6.47,7.83,7.83,0,0,1-6.06,2.26A7.57,7.57,0,0,1,279.12,113.08Z"/><path class="cls-2" d="M296.66,80.52h14.7v4.9h-9.31v9.06h7.4v4.9h-7.4v10.54h9.31v4.9h-14.7Z"/><path class="cls-2" d="M314.84,80.52h6.76l5.24,20.53h.1V80.52h4.8v34.3H326.2l-6.46-25h-.1v25h-4.8Z"/><path class="cls-2" d="M337.23,113.08a9.25,9.25,0,0,1-2-6.4v-2h5.1v2.35q0,3.34,2.79,3.34a2.62,2.62,0,0,0,2.08-.81,4,4,0,0,0,.71-2.62,7.29,7.29,0,0,0-1-3.8,17.89,17.89,0,0,0-3.63-4,21.72,21.72,0,0,1-4.65-5.31,10.9,10.9,0,0,1-1.32-5.37,8.92,8.92,0,0,1,2.05-6.29,7.74,7.74,0,0,1,6-2.23,7.43,7.43,0,0,1,5.86,2.23q2,2.22,2,6.39v1.42H346.1V88.31a3.94,3.94,0,0,0-.69-2.58,2.52,2.52,0,0,0-2-.8c-1.79,0-2.69,1.09-2.69,3.28a6.48,6.48,0,0,0,1,3.48,19.39,19.39,0,0,0,3.65,3.92A20.11,20.11,0,0,1,350,101a11.84,11.84,0,0,1,1.27,5.63q0,4.22-2.08,6.47a7.82,7.82,0,0,1-6,2.26A7.59,7.59,0,0,1,337.23,113.08Z"/><path class="cls-2" d="M354.77,80.52h14.7v4.9h-9.31v9.06h7.4v4.9h-7.4v10.54h9.31v4.9h-14.7Z"/><path class="cls-2" d="M377.16,85.42h-5.63v-4.9h16.66v4.9h-5.64v29.4h-5.39Z"/><path class="cls-2" d="M391.18,80.52h5.39v34.3h-5.39Z"/><path class="cls-2" d="M399.55,80.52H405l3.53,26.6h.1l3.53-26.6h5l-5.2,34.3h-7.15Z"/><path class="cls-2" d="M420.08,80.52h14.7v4.9h-9.31v9.06h7.4v4.9h-7.4v10.54h9.31v4.9h-14.7Z"/><path class="cls-2" d="M278,130.52h8q4.17,0,6.08,1.93c1.27,1.29,1.91,3.28,1.91,6v2.11c0,3.56-1.17,5.82-3.53,6.76v.1a4.19,4.19,0,0,1,2.77,2.4,12.09,12.09,0,0,1,.81,4.85v6a21.85,21.85,0,0,0,.1,2.38,5.91,5.91,0,0,0,.49,1.79h-5.49a7.34,7.34,0,0,1-.39-1.57,22.36,22.36,0,0,1-.1-2.65v-6.27a5.28,5.28,0,0,0-.76-3.28,3.22,3.22,0,0,0-2.62-.93h-1.86v14.7H278Zm7.35,14.7a3.2,3.2,0,0,0,2.42-.84,3.91,3.91,0,0,0,.81-2.79v-2.65a4.36,4.36,0,0,0-.66-2.69,2.49,2.49,0,0,0-2.08-.83h-2.45v9.8Z"/><path class="cls-2" d="M302.34,130.52h7.3l5.59,34.3h-5.39l-1-6.81v.09h-6.13l-1,6.72h-5Zm5.88,22.93-2.4-17h-.1l-2.35,17Z"/><path class="cls-2" d="M320.18,135.42h-5.64v-4.9H331.2v4.9h-5.63v29.4h-5.39Z"/><path class="cls-2" d="M334.19,130.52h5.39v34.3h-5.39Z"/><path class="cls-2" d="M344,130.52h6.76L356,151.05h.09V130.52h4.81v34.3h-5.54l-6.47-25h-.1v25H344Z"/><path class="cls-2" d="M367,163.08a9.12,9.12,0,0,1-2.06-6.4v-18a9.07,9.07,0,0,1,2.06-6.39,9.13,9.13,0,0,1,12,0,9.07,9.07,0,0,1,2.06,6.39v2.94h-5.1v-3.28c0-2.26-.93-3.38-2.79-3.38s-2.8,1.12-2.8,3.38v18.76q0,3.35,2.8,3.34t2.79-3.34v-6.71h-2.7v-4.9H381v11.22a9.12,9.12,0,0,1-2.06,6.4,9.13,9.13,0,0,1-12,0Z"/><path class="cls-2" d="M385.93,163.08a9.25,9.25,0,0,1-2-6.4v-2H389v2.35q0,3.35,2.79,3.34a2.64,2.64,0,0,0,2.09-.81,4,4,0,0,0,.71-2.62,7.29,7.29,0,0,0-1-3.8,18.41,18.41,0,0,0-3.63-4,21.72,21.72,0,0,1-4.65-5.31,10.8,10.8,0,0,1-1.33-5.37,8.93,8.93,0,0,1,2.06-6.29,7.71,7.71,0,0,1,6-2.23,7.4,7.4,0,0,1,5.85,2.23q2,2.22,2,6.39v1.42h-5.1v-1.76a4,4,0,0,0-.68-2.58,2.52,2.52,0,0,0-2-.8c-1.8,0-2.7,1.09-2.7,3.28a6.49,6.49,0,0,0,1,3.48,19.1,19.1,0,0,0,3.65,3.92,20.23,20.23,0,0,1,4.65,5.34,11.84,11.84,0,0,1,1.28,5.63,9.19,9.19,0,0,1-2.09,6.47,7.79,7.79,0,0,1-6.05,2.26A7.6,7.6,0,0,1,385.93,163.08Z"/></g></g></svg>